<?xml version="1.0" standalone="no"?>
<!DOCTYPE svg PUBLIC "-//W3C//DTD SVG 20010904//EN" "http://www.w3.org/TR/2001/REC-SVG-20010904/DTD/svg10.dtd">
<svg xmlns="http://www.w3.org/2000/svg" version="1.0" width="100" height="100" viewBox="0 0 225.000000 225.000000" preserveAspectRatio="xMidYMid meet">
<metadata>
Created by potrace 1.16, written by Peter Selinger 2001-2019
</metadata>
<g transform="translate(0.000000,225.000000) scale(0.100000,-0.100000)" fill="#000000" stroke="none">
<path d="M885 1882 c-51 -25 -78 -55 -106 -116 -58 -131 -17 -315 83 -376 39 -24 116 -27 156 -6 123 64 163 299 72 425 -59 80 -133 107 -205 73z"/>
<path d="M1402 1797 c-55 -17 -126 -89 -157 -159 -40 -86 -41 -192 -5 -257 31 -56 65 -81 118 -88 131 -18 262 134 262 303 0 105 -46 184 -119 204 -43 12 -55 11 -99 -3z"/>
<path d="M484 1556 c-60 -26 -104 -109 -104 -196 0 -154 119 -284 230 -251 117 35 165 204 96 339 -29 56 -59 86 -108 107 -45 18 -73 19 -114 1z"/>
<path d="M1667 1346 c-161 -58 -238 -284 -132 -390 85 -86 231 -36 302 103 60 115 37 238 -51 280 -49 24 -67 25 -119 7z"/>
<path d="M1028 1305 c-54 -20 -115 -65 -178 -130 -30 -31 -108 -97 -172 -147 -179 -136 -213 -187 -213 -318 0 -68 5 -93 22 -125 57 -106 153 -139 337 -115 127 17 198 4 341 -63 90 -42 122 -52 177 -55 59 -4 73 -1 112 22 78 46 126 134 126 231 0 86 -26 152 -112 282 -38 59 -92 153 -119 210 -27 57 -64 119 -81 139 -60 69 -164 99 -240 69z"/>
</g>
</svg>
